<svg width="101" height="101" viewBox="0 0 101 101" fill="none" xmlns="http://www.w3.org/2000/svg">
<g clip-path="url(#clip0_1104_6004)">
<path d="M78.2777 36.9228C78.2777 67.4784 92.1666 64.7006 92.1666 78.5895C92.1666 78.5895 92.1666 84.145 86.611 84.145H14.3888C8.83325 84.145 8.83325 78.5895 8.83325 78.5895C8.83325 64.7006 22.7221 67.4784 22.7221 36.9228C22.7221 21.5839 35.1583 9.14502 50.4999 9.14502C65.8416 9.14502 78.2777 21.5839 78.2777 36.9228Z" fill="#FFAC33"/>
<path d="M50.5001 17.4782C55.1025 17.4782 58.8334 13.7472 58.8334 9.14486C58.8334 4.54248 55.1025 0.811523 50.5001 0.811523C45.8977 0.811523 42.1667 4.54248 42.1667 9.14486C42.1667 13.7472 45.8977 17.4782 50.5001 17.4782Z" fill="#FFAC33"/>
<path d="M50.5 100.811C53.4469 100.811 56.273 99.6407 58.3568 97.5569C60.4405 95.4732 61.6111 92.647 61.6111 89.7002H39.3889C39.3889 92.647 40.5595 95.4732 42.6433 97.5569C44.727 99.6407 47.5532 100.811 50.5 100.811Z" fill="#FFAC33"/>
<path d="M86.6193 92.4864L11.6027 17.4698C10.8682 16.7352 10.4556 15.739 10.4556 14.7003C10.4556 13.6616 10.8682 12.6654 11.6027 11.9309L11.6193 11.9142C12.3539 11.1797 13.35 10.7671 14.3888 10.7671C15.4275 10.7671 16.4237 11.1797 17.1582 11.9142L92.1749 86.9309C92.9094 87.6654 93.322 88.6616 93.322 89.7003C93.322 90.739 92.9094 91.7352 92.1749 92.4698L92.1582 92.4864C91.4237 93.2209 90.4275 93.6335 89.3888 93.6335C88.35 93.6335 87.3539 93.2209 86.6193 92.4864Z" fill="#DD2E44"/>
</g>
<defs>
<clipPath id="clip0_1104_6004">
<rect width="100" height="100" fill="white" transform="translate(0.5 0.811523)"/>
</clipPath>
</defs>
</svg>
